<svg xmlns:xlink="http://www.w3.org/1999/xlink" xmlns="http://www.w3.org/2000/svg" viewBox="0 0 16.172 10.916" width="16.172"  height="10.916" ><defs><symbol id="icon-menu-newsletters" width="100%" height="100%" viewBox="0 0 16.172 10.916">
<path d="M0 9.949V.967q0-.016.047-.3l5.286 4.526-5.271 5.068A1.322 1.322 0 0 1 0 9.949Zm.7-9.9A.672.672 0 0 1 .965.002h14.24a.883.883 0 0 1 .281.047l-5.3 4.538-.7.561-1.392 1.137-1.388-1.139-.7-.561Zm.017 10.82 5.318-5.1 2.058 1.669 2.058-1.669 5.318 5.1a.749.749 0 0 1-.265.047H.967a.706.706 0 0 1-.25-.047Zm10.137-5.676L16.128.671a.931.931 0 0 1 .047.3v8.983a1.2 1.2 0 0 1-.047.312Z"></path>
</symbol></defs><use xlink:href="#icon-menu-newsletters"></use></svg>