<svg xmlns:xlink="http://www.w3.org/1999/xlink" xmlns="http://www.w3.org/2000/svg" viewBox="0 0 17.915 13.932" width="17.915"  height="13.932" ><defs><symbol id="icon-menu-home" width="100%" height="100%" viewBox="0 0 17.915 13.932">
<path id="Icon_awesome-home" data-name="Icon awesome-home" d="M8.719,5.868,2.985,10.59v5.1a.5.5,0,0,0,.5.5l3.485-.009a.5.5,0,0,0,.5-.5V12.7a.5.5,0,0,1,.5-.5h1.99a.5.5,0,0,1,.5.5v2.974a.5.5,0,0,0,.5.5l3.484.01a.5.5,0,0,0,.5-.5v-5.1L9.195,5.868A.379.379,0,0,0,8.719,5.868Zm9.057,3.21-2.6-2.143V2.627a.373.373,0,0,0-.373-.373H13.062a.373.373,0,0,0-.373.373V4.885L9.9,2.594a1.493,1.493,0,0,0-1.9,0L.134,9.078a.373.373,0,0,0-.05.526l.793.964a.373.373,0,0,0,.526.051L8.719,4.593a.379.379,0,0,1,.476,0l7.316,6.025a.373.373,0,0,0,.526-.05l.793-.964a.373.373,0,0,0-.053-.527Z" transform="translate(0.001 -2.254)"></path>
</symbol></defs><use xlink:href="#icon-menu-home"></use></svg>