<svg xmlns:xlink="http://www.w3.org/1999/xlink" xmlns="http://www.w3.org/2000/svg" role="img" aria-hidden="true" viewBox="0 0 32 32" width="32"  height="32" >
              <g transform="translate(-275 -167)">
                <rect data-name="Rectángulo 58" width="32" height="32" rx="16" transform="translate(275 167)"></rect>
                <g transform="translate(280.35 172.35)" fill="#FFFFFF">
                  <path data-name="Trazado 22" d="M10.179 3.188c2.276 0 2.546.007 3.448.051a4.71 4.71 0 0 1 1.585.292 2.589 2.589 0 0 1 .979.639 2.663 2.663 0 0 1 .639.979 4.689 4.689 0 0 1 .292 1.585c.04.9.051 1.169.051 3.448s-.007 2.546-.051 3.448a4.71 4.71 0 0 1-.292 1.585 2.589 2.589 0 0 1-.639.979 2.663 2.663 0 0 1-.979.639 4.689 4.689 0 0 1-1.585.292c-.9.04-1.169.051-3.448.051s-2.546-.007-3.448-.051a4.71 4.71 0 0 1-1.585-.292 2.589 2.589 0 0 1-.979-.639 2.663 2.663 0 0 1-.639-.979 4.689 4.689 0 0 1-.292-1.585c-.04-.9-.051-1.169-.051-3.448s.007-2.546.051-3.448a4.71 4.71 0 0 1 .292-1.585 2.589 2.589 0 0 1 .639-.979 2.663 2.663 0 0 1 .979-.639 4.689 4.689 0 0 1 1.585-.292c.9-.044 1.173-.051 3.448-.051m0-1.538c-2.316 0-2.608.011-3.518.051a6.223 6.223 0 0 0-2.071.4 4.23 4.23 0 0 0-1.512.983 4.134 4.134 0 0 0-.978 1.51 6.3 6.3 0 0 0-.4 2.071c-.037.906-.047 1.2-.047 3.514s.011 2.608.051 3.518a6.2 6.2 0 0 0 .4 2.071 4.23 4.23 0 0 0 .983 1.512 4.134 4.134 0 0 0 1.512.983 6.3 6.3 0 0 0 2.071.4c.91.04 1.2.051 3.518.051s2.608-.011 3.518-.051a6.2 6.2 0 0 0 2.071-.4 4.23 4.23 0 0 0 1.512-.983 4.134 4.134 0 0 0 .983-1.512 6.3 6.3 0 0 0 .4-2.071c.04-.91.051-1.2.051-3.518s-.011-2.608-.051-3.518a6.2 6.2 0 0 0-.4-2.071 4.23 4.23 0 0 0-.983-1.512 4.134 4.134 0 0 0-1.518-.978 6.3 6.3 0 0 0-2.071-.4c-.913-.037-1.205-.047-3.521-.047Z" fill="#FFFFFF"></path>
                  <path data-name="Trazado 23" d="M10.18 5.8a4.38 4.38 0 1 0 4.38 4.38 4.381 4.381 0 0 0-4.38-4.38Zm0 7.221a2.842 2.842 0 1 1 2.842-2.842 2.84 2.84 0 0 1-2.842 2.842Z" fill="#FFFFFF"></path>
                  <circle data-name="Elipse 25" cx="1.023" cy="1.023" r="1.023" transform="translate(13.708 4.605)" fill="#FFFFFF"></circle>
                </g>
              </g>
            </svg>