<svg xmlns:xlink="http://www.w3.org/1999/xlink" xmlns="http://www.w3.org/2000/svg" fill="#000000" role="img" aria-hidden="true" viewBox="0 0 32 32" width="32"  height="32" >
              <g transform="translate(-227 -167)">
                <rect data-name="Rectángulo 56" width="32" height="32" rx="16" transform="translate(227 167)"></rect>
                <path d="M251.25 177.659a7.068 7.068 0 0 1-2.033.558 3.539 3.539 0 0 0 1.556-1.959 7.081 7.081 0 0 1-2.246.858 3.541 3.541 0 0 0-6.117 2.424 3.69 3.69 0 0 0 .09.8 10.05 10.05 0 0 1-7.293-3.7 3.538 3.538 0 0 0 1.088 4.73 3.474 3.474 0 0 1-1.6-.443v.043a3.542 3.542 0 0 0 2.837 3.47 3.475 3.475 0 0 1-.932.123 3.516 3.516 0 0 1-.665-.062 3.544 3.544 0 0 0 3.305 2.459 7.1 7.1 0 0 1-4.394 1.51 7.2 7.2 0 0 1-.846-.049 10.065 10.065 0 0 0 15.493-8.479c0-.152 0-.308-.008-.456a7.2 7.2 0 0 0 1.765-1.827Z" fill="#FFFFFF"></path>
              </g>
            </svg>